<svg xmlns="http://www.w3.org/2000/svg" fill="none" viewBox="0 0 103 37" height="37" width="103">
<path fill="#0046B4" d="M37.72 8.64001H36.79L35.5 5.6C35.53 5.87 35.56 6.11 35.57 6.33C35.59 6.55 35.59 6.81 35.59 7.11V8.65H34.94V4.88H35.85L37.16 7.93C37.14 7.78 37.12 7.59 37.09 7.35C37.07 7.11 37.06 6.88 37.06 6.64V4.88H37.71V8.64001H37.72Z"></path>
<path fill="#0046B4" d="M40.59 8.64001L40.36 7.77H39.11L38.88 8.64001H38.13L39.3 4.88H40.19L41.36 8.64001H40.59ZM39.25 7.23H40.21L39.73 5.43L39.25 7.23Z"></path>
<path fill="#0046B4" d="M43.92 4.88L43.84 5.46H42.86V8.64001H42.14V5.46H41.13V4.88H43.92Z"></path>
<path fill="#0046B4" d="M45.11 4.88H44.39V8.64001H45.11V4.88Z"></path>
<path fill="#0046B4" d="M48.31 5.03001C48.56 5.18001 48.75 5.41001 48.88 5.70001C49.01 5.99001 49.08 6.35001 49.08 6.76001C49.08 7.17001 49.01 7.52001 48.88 7.82001C48.74 8.11001 48.55 8.34001 48.31 8.50001C48.06 8.66001 47.77 8.73001 47.44 8.73001C47.1 8.73001 46.81 8.65001 46.56 8.50001C46.31 8.35001 46.12 8.12001 45.99 7.83001C45.86 7.54001 45.79 7.18001 45.79 6.77001C45.79 6.36001 45.86 6.01001 45.99 5.72001C46.12 5.42001 46.32 5.20001 46.56 5.04001C46.81 4.88001 47.1 4.81001 47.43 4.81001C47.77 4.80001 48.06 4.88001 48.31 5.03001ZM46.77 5.69001C46.62 5.92001 46.54 6.28001 46.54 6.77001C46.54 7.71001 46.84 8.18001 47.43 8.18001C47.72 8.18001 47.94 8.07001 48.09 7.84001C48.24 7.61001 48.31 7.26001 48.31 6.76001C48.31 6.27001 48.23 5.91001 48.09 5.69001C47.94 5.46001 47.72 5.35001 47.43 5.35001C47.14 5.35001 46.92 5.46001 46.77 5.69001Z"></path>
<path fill="#0046B4" d="M52.53 8.64001H51.6L50.31 5.6C50.34 5.87 50.37 6.11 50.38 6.33C50.4 6.55 50.4 6.81 50.4 7.11V8.65H49.75V4.88H50.66L51.97 7.93C51.95 7.78 51.93 7.59 51.9 7.35C51.88 7.11 51.87 6.88 51.87 6.64V4.88H52.52V8.64001H52.53Z"></path>
<path fill="#0046B4" d="M55.4 8.64001L55.17 7.77H53.92L53.69 8.64001H52.94L54.11 4.88H55L56.17 8.64001H55.4ZM54.06 7.23H55.02L54.54 5.43L54.06 7.23Z"></path>
<path fill="#0046B4" d="M57.3 4.88V8.06001H58.81L58.73 8.64001H56.59V4.88H57.3Z"></path>
<path fill="#0046B4" d="M36.85 26.8C37.05 26.88 37.23 26.99 37.4 27.15L37.05 27.56C36.92 27.45 36.78 27.37 36.64 27.32C36.5 27.27 36.36 27.24 36.2 27.24C36.02 27.24 35.88 27.28 35.78 27.36C35.67 27.44 35.62 27.55 35.62 27.69C35.62 27.78 35.64 27.86 35.68 27.92C35.72 27.98 35.8 28.04 35.91 28.09C36.02 28.14 36.18 28.21 36.39 28.27C36.76 28.39 37.04 28.53 37.23 28.7C37.42 28.87 37.51 29.12 37.51 29.45C37.51 29.68 37.45 29.87 37.34 30.05C37.23 30.22 37.06 30.36 36.85 30.46C36.63 30.56 36.38 30.61 36.09 30.61C35.8 30.61 35.55 30.56 35.32 30.47C35.09 30.38 34.9 30.25 34.73 30.09L35.1 29.68C35.25 29.8 35.4 29.9 35.55 29.96C35.71 30.02 35.88 30.06 36.07 30.06C36.28 30.06 36.44 30.01 36.57 29.91C36.7 29.81 36.76 29.67 36.76 29.5C36.76 29.39 36.74 29.3 36.69 29.23C36.65 29.16 36.57 29.1 36.47 29.04C36.36 28.98 36.21 28.93 36.01 28.86C35.61 28.74 35.32 28.59 35.15 28.41C34.97 28.24 34.88 28.01 34.88 27.72C34.88 27.51 34.93 27.33 35.04 27.18C35.15 27.02 35.3 26.9 35.5 26.82C35.69 26.73 35.91 26.69 36.16 26.69C36.42 26.69 36.65 26.73 36.85 26.8Z"></path>
<path fill="#0046B4" d="M38.84 26.77H38.12V30.53H38.84V26.77Z"></path>
<path fill="#0046B4" d="M42.39 30.53H41.46L40.17 27.49C40.2 27.76 40.23 28 40.24 28.22C40.26 28.44 40.26 28.7 40.26 29V30.53H39.61V26.77H40.52L41.83 29.82C41.81 29.68 41.79 29.49 41.76 29.25C41.74 29.01 41.73 28.78 41.73 28.54V26.78H42.38V30.53H42.39Z"></path>
<path fill="#0046B4" d="M45.34 26.8C45.53 26.87 45.71 26.98 45.88 27.13L45.49 27.53C45.35 27.42 45.23 27.35 45.11 27.3C44.99 27.25 44.85 27.23 44.7 27.23C44.41 27.23 44.17 27.35 43.99 27.58C43.81 27.81 43.71 28.17 43.71 28.65C43.71 29.15 43.79 29.51 43.93 29.73C44.08 29.95 44.3 30.06 44.6 30.06C44.83 30.06 45.03 30.01 45.2 29.91V28.93H44.63L44.55 28.4H45.9V30.24C45.49 30.49 45.06 30.61 44.61 30.61C44.07 30.61 43.66 30.44 43.38 30.11C43.09 29.78 42.95 29.29 42.95 28.65C42.95 28.24 43.03 27.89 43.18 27.59C43.33 27.29 43.54 27.07 43.8 26.92C44.06 26.77 44.35 26.69 44.67 26.69C44.93 26.69 45.15 26.72 45.34 26.8Z"></path>
<path fill="#0046B4" d="M48.74 30.53L48.51 29.66H47.26L47.03 30.53H46.28L47.45 26.77H48.34L49.51 30.53H48.74ZM47.4 29.12H48.36L47.88 27.32L47.4 29.12Z"></path>
<path fill="#0046B4" d="M52.15 27.07C52.42 27.27 52.55 27.57 52.55 27.97C52.55 28.39 52.42 28.7 52.15 28.91C51.88 29.12 51.53 29.22 51.08 29.22H50.64V30.53H49.92V26.77H51.03C51.51 26.77 51.89 26.87 52.15 27.07ZM51.61 28.52C51.74 28.41 51.81 28.23 51.81 27.97C51.81 27.52 51.55 27.3 51.03 27.3H50.64V28.68H51.03C51.28 28.68 51.48 28.63 51.61 28.52Z"></path>
<path fill="#0046B4" d="M55.46 26.92C55.71 27.07 55.9 27.3 56.03 27.59C56.16 27.88 56.23 28.24 56.23 28.65C56.23 29.06 56.16 29.41 56.03 29.71C55.89 30 55.7 30.23 55.46 30.39C55.21 30.54 54.92 30.62 54.59 30.62C54.25 30.62 53.96 30.54 53.71 30.39C53.46 30.24 53.27 30.01 53.14 29.72C53.01 29.43 52.94 29.07 52.94 28.66C52.94 28.25 53.01 27.9 53.14 27.61C53.27 27.31 53.47 27.09 53.72 26.93C53.97 26.77 54.26 26.7 54.59 26.7C54.92 26.69 55.21 26.76 55.46 26.92ZM53.92 27.58C53.77 27.81 53.69 28.17 53.69 28.66C53.69 29.6 53.99 30.07 54.58 30.07C54.87 30.07 55.09 29.96 55.24 29.73C55.39 29.5 55.46 29.15 55.46 28.65C55.46 28.16 55.38 27.8 55.24 27.58C55.09 27.35 54.87 27.24 54.58 27.24C54.29 27.24 54.07 27.35 53.92 27.58Z"></path>
<path fill="#0046B4" d="M58.08 29.02H57.62V30.53H56.9V26.77H58.02C59.01 26.77 59.51 27.14 59.51 27.88C59.51 28.13 59.45 28.34 59.33 28.5C59.21 28.66 59.01 28.8 58.75 28.9L59.74 30.54H58.91L58.08 29.02ZM57.62 28.51H58.07C58.3 28.51 58.47 28.46 58.59 28.36C58.71 28.26 58.77 28.1 58.77 27.88C58.77 27.68 58.71 27.53 58.59 27.43C58.47 27.34 58.28 27.29 58.01 27.29H57.62V28.51Z"></path>
<path fill="#0046B4" d="M62.41 26.77L62.33 27.3H60.95V28.35H62.15V28.89H60.95V29.99H62.43V30.53H60.23V26.77H62.41Z"></path>
<path fill="#00AA13" d="M14.27 3.58999L27.62 5.95999C27.92 6.00999 28.14 6.27999 28.14 6.57999V23.68C28.14 24.09 27.75 24.39 27.35 24.29L14 20.68C13.73 20.61 13.54 20.36 13.54 20.07V4.20999C13.53 3.81999 13.88 3.51999 14.27 3.58999Z"></path>
<path fill="#AADB1E" d="M20.28 10.07L6.92997 13.65C6.65997 13.72 6.46997 13.97 6.46997 14.25V30.28C6.46997 30.71 6.89997 31.01 7.30997 30.87L20.66 26.01C20.91 25.92 21.07 25.69 21.07 25.42V10.67C21.06 10.26 20.67 9.96001 20.28 10.07Z"></path>
<path fill="#0046B4" d="M20.28 10.07L13.53 11.88V20.08C13.53 20.37 13.72 20.62 13.99 20.69L21.06 22.6V10.67C21.06 10.26 20.68 9.96001 20.28 10.07Z"></path>
<path fill="#0046B4" d="M44.86 15.49H46.66L46.82 16.57C46.97 16.36 47.13 16.18 47.29 16.02C47.45 15.86 47.61 15.73 47.77 15.62C47.94 15.51 48.11 15.43 48.29 15.38C48.47 15.33 48.66 15.3 48.86 15.3C49.02 15.3 49.18 15.32 49.32 15.35C49.46 15.38 49.59 15.43 49.72 15.49L49.54 17.51C49.41 17.45 49.29 17.4 49.16 17.37C49.03 17.34 48.9 17.32 48.77 17.32C48.64 17.32 48.51 17.34 48.38 17.37C48.25 17.41 48.12 17.47 47.98 17.55C47.85 17.63 47.71 17.74 47.57 17.88C47.43 18.01 47.29 18.18 47.15 18.39V24.24H44.86V15.49Z"></path>
<path fill="#0046B4" d="M57.53 23.52C57.13 23.81 56.7 24.03 56.22 24.19C55.74 24.35 55.22 24.43 54.66 24.43C54.04 24.43 53.48 24.33 52.97 24.12C52.46 23.91 52.02 23.61 51.66 23.22C51.3 22.83 51.01 22.36 50.81 21.8C50.61 21.24 50.51 20.62 50.51 19.92C50.51 19.18 50.62 18.52 50.85 17.95C51.07 17.38 51.38 16.9 51.76 16.5C52.15 16.11 52.6 15.81 53.11 15.61C53.63 15.41 54.18 15.31 54.77 15.31C55.25 15.31 55.7 15.38 56.1 15.5C56.5 15.63 56.86 15.81 57.19 16.04L56.69 17.83C56.44 17.64 56.17 17.5 55.89 17.4C55.61 17.3 55.32 17.25 55.02 17.25C54.72 17.25 54.44 17.31 54.17 17.42C53.9 17.53 53.67 17.69 53.48 17.91C53.28 18.12 53.13 18.39 53.01 18.71C52.89 19.03 52.83 19.4 52.83 19.83C52.83 20.24 52.88 20.6 52.98 20.93C53.08 21.26 53.23 21.53 53.43 21.76C53.63 21.99 53.86 22.16 54.14 22.28C54.42 22.4 54.73 22.46 55.07 22.46C55.47 22.46 55.83 22.39 56.14 22.27C56.45 22.14 56.75 21.95 57.02 21.7L57.53 23.52Z"></path>
<path fill="#0046B4" d="M59.07 11.43L61.36 11.17V16.04C61.66 15.81 62 15.63 62.37 15.5C62.74 15.38 63.14 15.31 63.57 15.31C64.04 15.31 64.48 15.38 64.89 15.53C65.3 15.68 65.65 15.9 65.96 16.2C66.27 16.5 66.51 16.88 66.69 17.34C66.87 17.8 66.95 18.33 66.95 18.95V24.24H64.66V19.21C64.66 18.84 64.62 18.52 64.53 18.27C64.44 18.01 64.32 17.8 64.17 17.64C64.02 17.48 63.84 17.36 63.64 17.29C63.44 17.22 63.23 17.18 63.02 17.18C62.72 17.18 62.43 17.25 62.14 17.39C61.86 17.53 61.6 17.73 61.37 17.99V24.24H59.08V11.43H59.07Z"></path>
<path fill="#0046B4" d="M70.22 11.17C70.44 11.17 70.64 11.21 70.82 11.29C71 11.37 71.16 11.47 71.3 11.61C71.44 11.74 71.54 11.9 71.62 12.09C71.7 12.28 71.73 12.48 71.73 12.69C71.73 12.91 71.69 13.11 71.62 13.29C71.54 13.47 71.44 13.63 71.3 13.77C71.16 13.9 71 14.01 70.82 14.09C70.64 14.17 70.44 14.21 70.22 14.21C70 14.21 69.8 14.17 69.62 14.09C69.44 14.01 69.28 13.91 69.14 13.77C69 13.63 68.89 13.48 68.82 13.29C68.74 13.11 68.7 12.91 68.7 12.69C68.7 12.48 68.74 12.28 68.82 12.09C68.9 11.91 69 11.74 69.14 11.61C69.28 11.48 69.44 11.37 69.62 11.29C69.8 11.21 70 11.17 70.22 11.17ZM69.08 15.49H71.37V24.25H69.08V15.49Z"></path>
<path fill="#0046B4" d="M81.57 15.49C81.23 16.96 80.82 18.42 80.33 19.88C79.84 21.34 79.27 22.79 78.62 24.25H75.9C75.24 22.8 74.67 21.34 74.18 19.88C73.69 18.42 73.28 16.96 72.96 15.49H75.31C75.42 16.03 75.55 16.59 75.69 17.15C75.83 17.71 75.98 18.27 76.15 18.83C76.32 19.39 76.5 19.95 76.69 20.51C76.89 21.07 77.09 21.62 77.3 22.17C77.51 21.63 77.71 21.07 77.9 20.51C78.09 19.95 78.27 19.39 78.44 18.83C78.61 18.27 78.76 17.71 78.9 17.15C79.04 16.59 79.17 16.04 79.28 15.49H81.57Z"></path>
<path fill="#0046B4" d="M90.25 23.49C89.78 23.79 89.27 24.02 88.71 24.18C88.15 24.34 87.56 24.42 86.92 24.42C86.21 24.42 85.58 24.32 85.01 24.12C84.45 23.92 83.97 23.62 83.58 23.24C83.19 22.85 82.89 22.38 82.68 21.82C82.47 21.26 82.37 20.63 82.37 19.94C82.37 19.23 82.47 18.59 82.67 18.03C82.87 17.46 83.15 16.98 83.51 16.57C83.87 16.16 84.3 15.85 84.81 15.64C85.32 15.42 85.87 15.31 86.48 15.31C87.03 15.31 87.54 15.4 87.99 15.59C88.44 15.78 88.83 16.05 89.14 16.41C89.46 16.77 89.7 17.2 89.87 17.72C90.04 18.24 90.13 18.82 90.13 19.49C90.13 19.66 90.13 19.81 90.12 19.96C90.11 20.11 90.09 20.25 90.07 20.4H84.67V20.42C84.7 20.76 84.79 21.06 84.91 21.32C85.04 21.59 85.21 21.81 85.42 21.99C85.63 22.17 85.89 22.31 86.19 22.41C86.49 22.51 86.83 22.56 87.21 22.56C87.7 22.56 88.16 22.49 88.58 22.35C89 22.21 89.4 22 89.79 21.72L90.25 23.49ZM87.92 18.81C87.91 18.55 87.88 18.31 87.8 18.1C87.73 17.89 87.63 17.71 87.5 17.55C87.37 17.4 87.22 17.28 87.03 17.2C86.84 17.12 86.64 17.08 86.41 17.08C86.19 17.08 85.98 17.12 85.8 17.19C85.61 17.26 85.45 17.38 85.3 17.52C85.15 17.67 85.03 17.85 84.93 18.06C84.83 18.27 84.75 18.52 84.7 18.79H87.92V18.81Z"></path>
<path fill="#0046B4" d="M92.36 22C92.73 22.22 93.1 22.38 93.46 22.49C93.82 22.6 94.19 22.66 94.57 22.66C94.77 22.66 94.95 22.64 95.11 22.6C95.27 22.56 95.4 22.51 95.5 22.44C95.61 22.37 95.69 22.29 95.75 22.2C95.81 22.1 95.84 22 95.84 21.89C95.84 21.71 95.78 21.55 95.67 21.42C95.55 21.29 95.4 21.18 95.21 21.08C95.02 20.98 94.81 20.89 94.56 20.8C94.32 20.71 94.07 20.62 93.82 20.51C93.57 20.4 93.32 20.28 93.08 20.15C92.84 20.02 92.62 19.85 92.43 19.65C92.24 19.45 92.09 19.22 91.97 18.94C91.86 18.67 91.8 18.34 91.8 17.96C91.8 17.56 91.88 17.2 92.04 16.87C92.2 16.54 92.42 16.27 92.72 16.04C93.02 15.81 93.37 15.64 93.79 15.51C94.2 15.39 94.67 15.32 95.19 15.32C95.65 15.32 96.09 15.37 96.52 15.47C96.95 15.57 97.33 15.72 97.68 15.93L97.21 17.66C96.92 17.48 96.61 17.34 96.28 17.23C95.94 17.13 95.61 17.08 95.28 17.08C95.09 17.08 94.92 17.1 94.76 17.13C94.61 17.16 94.48 17.21 94.38 17.27C94.28 17.33 94.2 17.4 94.15 17.49C94.1 17.58 94.07 17.68 94.07 17.79C94.07 17.97 94.13 18.12 94.24 18.24C94.35 18.36 94.51 18.47 94.7 18.56C94.89 18.65 95.11 18.74 95.35 18.83C95.59 18.92 95.84 19.01 96.09 19.11C96.34 19.21 96.59 19.33 96.83 19.47C97.07 19.61 97.29 19.78 97.48 19.98C97.67 20.18 97.83 20.43 97.94 20.71C98.05 20.99 98.11 21.32 98.11 21.7C98.11 22.12 98.03 22.49 97.86 22.83C97.69 23.17 97.46 23.45 97.16 23.68C96.86 23.92 96.49 24.09 96.06 24.22C95.63 24.34 95.16 24.41 94.64 24.41C94.38 24.41 94.13 24.4 93.88 24.37C93.63 24.34 93.39 24.3 93.16 24.24C92.93 24.18 92.71 24.11 92.5 24.03C92.29 23.94 92.09 23.85 91.92 23.74L92.36 22Z"></path>
<path fill="#0046B4" d="M40.7 23.48C40.38 23.73 40.02 23.92 39.65 24.04C39.27 24.16 38.87 24.22 38.45 24.22C37.92 24.22 37.43 24.12 36.99 23.92C36.55 23.72 36.17 23.44 35.85 23.08C35.53 22.72 35.29 22.29 35.12 21.78C34.95 21.27 34.86 20.71 34.86 20.09C34.86 19.38 34.98 18.73 35.22 18.15C35.46 17.57 35.81 17.07 36.26 16.66C36.72 16.25 37.29 15.93 37.97 15.71C38.65 15.49 39.42 15.38 40.29 15.38C40.51 15.38 40.74 15.38 40.98 15.39C41.22 15.4 41.45 15.4 41.68 15.41C41.91 15.42 42.13 15.43 42.35 15.45C42.56 15.47 42.77 15.48 42.96 15.51V24.24H40.7V23.48ZM40.7 17.28H40.38H40.06C39.56 17.28 39.13 17.35 38.76 17.48C38.39 17.61 38.09 17.8 37.84 18.03C37.59 18.27 37.41 18.55 37.3 18.89C37.18 19.23 37.12 19.6 37.12 20.01C37.12 20.37 37.16 20.7 37.25 20.99C37.34 21.28 37.46 21.53 37.63 21.74C37.8 21.95 37.99 22.1 38.23 22.22C38.46 22.33 38.73 22.39 39.02 22.39C39.35 22.39 39.66 22.32 39.94 22.18C40.22 22.04 40.48 21.84 40.71 21.6V17.28H40.7Z"></path>
</svg>
